<?xml version="1.0" encoding="utf-8"?>
<!-- Generator: Adobe Illustrator 24.0.0, SVG Export Plug-In . SVG Version: 6.00 Build 0)  -->
<svg version="1.1" id="Layer_1" xmlns="http://www.w3.org/2000/svg" xmlns:xlink="http://www.w3.org/1999/xlink" x="0px" y="0px"
	 viewBox="0 0 177.5 90" style="enable-background:new 0 0 177.5 90;" xml:space="preserve">
<style type="text/css">
	.st0{fill:none;}
	.st1{fill:#FFFFFF;}
	.st2{enable-background:new    ;}
</style>
<title>Mesa de trabajo 1 copia</title>
<g>
	
		<rect x="21.6" y="28.7" transform="matrix(0.6537 -0.7568 0.7568 0.6537 -20.7282 43.7208)" class="st0" width="31.5" height="31.5"/>
	<polygon class="st1" points="35.9,23.5 16.4,46.1 39,65.6 42.6,61.4 43.8,62.5 39.1,67.9 14,46.2 35.7,21.1 46.8,30.7 45.7,32 	"/>
	
		<rect x="42.8" y="34.7" transform="matrix(0.6537 -0.7568 0.7568 0.6537 -17.9194 61.8197)" class="st0" width="31.5" height="31.5"/>
	<path class="st1" d="M53.8,72.2L28.7,50.5l21.7-25.1L75.5,47L53.8,72.2z M44.5,34.8L31.1,50.3l22.6,19.5l19.5-22.5L50.6,27.7
		L44.5,34.8"/>
	<g class="st2">
		<path class="st1" d="M101.9,46.2h-3.7V35.4h3.6c2.3,0,3.4,1.2,3.4,2.7c0,1.4-0.9,2.2-1.9,2.5c1.2,0.2,2.2,1.3,2.2,2.7
			C105.4,44.9,104.2,46.2,101.9,46.2z M101.7,36.3h-2.5v3.9h2.5c1.5,0,2.3-0.7,2.3-1.9C104.1,37.1,103.3,36.3,101.7,36.3z
			 M101.8,41.1h-2.5v4.2h2.6c1.6,0,2.5-0.8,2.5-2.1C104.3,41.9,103.3,41.1,101.8,41.1z"/>
		<path class="st1" d="M113.6,35.4h1.1v10.8h-1.1V35.4z"/>
		<path class="st1" d="M122.5,35.4h7.1v0.9h-3v9.9h-1.1v-9.9h-3V35.4z"/>
		<path class="st1" d="M136.8,35.4h7.1v0.9h-3v9.9h-1.1v-9.9h-3V35.4z"/>
		<path class="st1" d="M157.4,36.3h-4.6v4h4.1v0.9h-4.1v4.1h4.6v0.9h-5.6V35.4h5.6V36.3z"/>
	</g>
	<g class="st2">
		<path class="st1" d="M110.7,52.8h2.8v0.4h-1.2v4h-0.4v-4h-1.2V52.8z"/>
		<path class="st1" d="M116.7,52.8h0.4v4.3h-0.4V52.8z"/>
		<path class="st1" d="M122.1,52.8h0.4V56c0,0.7-0.4,1.1-1.1,1.1c-0.7,0-1.2-0.5-1.2-1.2h0.4c0,0.4,0.2,0.8,0.7,0.8
			c0.5,0,0.7-0.4,0.7-0.7V52.8z"/>
		<path class="st1" d="M126.1,52.8h0.4v2.7c0,0.9,0.5,1.3,1.1,1.3c0.7,0,1.1-0.4,1.1-1.3v-2.7h0.4v2.7c0,1.1-0.7,1.7-1.6,1.7
			c-0.9,0-1.6-0.5-1.6-1.7V52.8z"/>
		<path class="st1" d="M135.2,56.1h-2l-0.4,1h-0.5l1.6-4.3h0.5l1.6,4.3h-0.5L135.2,56.1z M134.2,53.4l-0.9,2.3h1.7L134.2,53.4z"/>
		<path class="st1" d="M142.5,52.8v4.3H142l-2.4-3.6v3.6h-0.4v-4.3h0.4l2.4,3.6v-3.6H142.5z"/>
		<path class="st1" d="M148.4,56.1h-2l-0.4,1h-0.5l1.6-4.3h0.5l1.6,4.3h-0.5L148.4,56.1z M147.4,53.4l-0.9,2.3h1.7L147.4,53.4z"/>
	</g>
</g>
</svg>
