<?xml version="1.0" encoding="utf-8"?>
<!-- Generator: Adobe Illustrator 24.0.0, SVG Export Plug-In . SVG Version: 6.00 Build 0)  -->
<svg version="1.1" id="Layer_1" xmlns="http://www.w3.org/2000/svg" xmlns:xlink="http://www.w3.org/1999/xlink" x="0px" y="0px"
	 viewBox="0 0 150.5 46.2" style="enable-background:new 0 0 150.5 46.2;" xml:space="preserve">
<style type="text/css">
	.st0{fill:#FFFFFF;}
</style>
<g>
	<path class="st0" d="M75.3,24.2h-4.3V11.7h4.2c2.6,0,3.9,1.4,3.9,3.2c0,1.7-1,2.6-2.2,2.9c1.4,0.3,2.5,1.5,2.5,3.1
		C79.3,22.8,77.9,24.2,75.3,24.2z M75.1,12.7h-2.9v4.5h2.9c1.7,0,2.7-0.9,2.7-2.3C77.8,13.6,76.9,12.7,75.1,12.7z M75.1,18.3h-2.9
		v4.9h3c1.8,0,2.9-0.9,2.9-2.4C78.1,19.2,76.9,18.3,75.1,18.3z"/>
	<path class="st0" d="M88.8,11.7h1.3v12.6h-1.3V11.7z"/>
	<path class="st0" d="M99.2,11.7h8.2v1H104v11.5h-1.3V12.7h-3.5V11.7z"/>
	<path class="st0" d="M115.7,11.7h8.2v1h-3.5v11.5h-1.3V12.7h-3.5V11.7z"/>
	<path class="st0" d="M139.7,12.7h-5.3v4.7h4.8v1h-4.8v4.8h5.3v1h-6.6V11.7h6.6V12.7z"/>
</g>
<g>
	<path class="st0" d="M83.2,30.3h3.6v0.5h-1.5v5.1h-0.6v-5.1h-1.5V30.3z"/>
	<path class="st0" d="M90.8,30.3h0.6v5.5h-0.6V30.3z"/>
	<path class="st0" d="M97.8,30.3h0.6v4.2c0,0.8-0.6,1.4-1.4,1.4c-0.9,0-1.5-0.6-1.5-1.5H96c0,0.6,0.3,1,0.9,1c0.6,0,0.9-0.5,0.9-0.9
		V30.3z"/>
	<path class="st0" d="M102.9,30.3h0.6v3.5c0,1.1,0.6,1.6,1.5,1.6s1.4-0.5,1.4-1.6v-3.5h0.6v3.5c0,1.5-0.9,2.1-2,2.1
		c-1.1,0-2-0.6-2-2.1V30.3z"/>
	<path class="st0" d="M114.5,34.5H112l-0.5,1.3h-0.6l2-5.4h0.6l2,5.4H115L114.5,34.5z M113.2,31.1l-1.1,3h2.2L113.2,31.1z"/>
	<path class="st0" d="M123.8,30.3v5.5h-0.6l-3.1-4.6v4.6h-0.6v-5.5h0.6l3.1,4.6v-4.6H123.8z"/>
	<path class="st0" d="M131.4,34.5h-2.5l-0.5,1.3h-0.6l2-5.4h0.6l2,5.4h-0.6L131.4,34.5z M130.1,31.1l-1.1,3h2.2L130.1,31.1z"/>
</g>
<g>
	<line class="st0" x1="60.2" y1="26" x2="150.4" y2="26"/>
	<rect x="60.2" y="25.3" class="st0" width="90.2" height="1.4"/>
</g>
<g>
	<path class="st0" d="M37.5,5.3l-5.3,6.1L19.1,0.1L0.3,21.9l21.8,18.9l5.3-6.1L40.5,46l18.9-21.8L37.5,5.3z M22,38.8l-19.6-17
		l17-19.6l12,10.4L18.7,27.1l7.6,6.6L22,38.8z M40.4,44L20.7,27l17-19.6l19.6,17L40.4,44z"/>
</g>
</svg>
