<?xml version="1.0" encoding="utf-8"?>
<!-- Generator: Adobe Illustrator 24.0.0, SVG Export Plug-In . SVG Version: 6.00 Build 0)  -->
<svg version="1.1" id="Layer_1" xmlns="http://www.w3.org/2000/svg" xmlns:xlink="http://www.w3.org/1999/xlink" x="0px" y="0px"
	 viewBox="0 0 80 106.7" style="enable-background:new 0 0 80 106.7;" xml:space="preserve">
<style type="text/css">
	.st0{fill:#FFFFFF;}
	.st1{fill:#211915;}
	.st2{font-family:'Poppins-Light';}
	.st3{font-size:15.46px;}
	.st4{letter-spacing:6;}
	.st5{font-size:6.19px;}
	.st6{letter-spacing:2;}
	.st7{fill:none;stroke:#000000;stroke-miterlimit:10;}
</style>
<rect x="0" y="-0.1" class="st0" width="79.8" height="106.7"/>
<rect x="19.2" y="25.4" transform="matrix(0.6537 -0.7568 0.7568 0.6537 -18.2875 38.7297)" class="st0" width="27.9" height="27.9"/>
<path class="st1" d="M34.7,60.1L12.4,40.9l19.2-22.3l22.3,19.2L34.7,60.1z M14.5,40.7L34.6,58l17.2-20l-20-17.3L14.5,40.7z"/>
<rect x="38" y="30.7" transform="matrix(0.6537 -0.7568 0.7568 0.6537 -15.7982 54.7698)" class="st0" width="27.9" height="27.9"/>
<path class="st1" d="M53.5,65.4L31.2,46.2l19.2-22.3l22.3,19.2L53.5,65.4z M33.3,46l20,17.3l17.3-19.9L50.6,26L33.3,46z"/>
<g>
	<text transform="matrix(1 0 0 1 15.0356 88.7898)" class="st1 st2 st3 st4">BITTE</text>
	<text transform="matrix(1 0 0 1 28.5656 97.6798)" class="st1 st2 st5 st6">TIJUANA</text>
	<line class="st7" x1="-7.1" y1="90.3" x2="84.7" y2="90.3"/>
</g>
</svg>
